<svg id="Layer_1" data-name="Layer 1" xmlns="http://www.w3.org/2000/svg" viewBox="0 0 776.19 231.73"><defs><style>.cls-1{fill:#494b96;}.cls-2{fill:#43963b;}.cls-3{fill:#bbcc23;}.cls-4{fill:#b7c706;}</style></defs><path class="cls-1" d="M251,207.56q4.92-.51,6.31-2.22c.92-1.15,1.39-3.82,1.39-8v-35l-1.07-1.26a8.63,8.63,0,0,0-3-2.54A11.67,11.67,0,0,0,251,158v-1.47H264.5l30.62,38V168.14c0-4.33-.64-7.16-1.93-8.46-.86-.85-2.75-1.4-5.65-1.66v-1.47h18.61V158c-3,.3-5,1-6,2.21s-1.52,3.81-1.52,8V210h-1.35l-35.09-43.48v30.87c0,4.33.63,7.15,1.9,8.48q1.24,1.27,5.54,1.74V209H251Z" transform="translate(-26.9 -26.72)"/><path class="cls-1" d="M308.63,207.56q4.85-.36,6.27-1.44c1-.74,1.44-2.63,1.44-5.69V165.14c0-2.92-.47-4.79-1.44-5.63s-3-1.33-6.27-1.49v-1.47h23.48V158c-3.23.16-5.32.65-6.28,1.49s-1.43,2.71-1.43,5.63v35.29c0,3.06.48,4.95,1.43,5.69s3.05,1.2,6.28,1.44V209H308.63Z" transform="translate(-26.9 -26.72)"/><path class="cls-1" d="M334.66,207.56c3-.28,4.95-.88,5.69-1.77s1.13-3,1.13-6.29V165.14c0-2.78-.42-4.61-1.27-5.47s-2.69-1.41-5.55-1.65v-1.47h22A32.35,32.35,0,0,1,368,158.29q8.68,3.28,8.68,12.11c0,3.94-1.29,7-3.85,9.09a21.32,21.32,0,0,1-10.49,4.17l16.35,20.13a11.23,11.23,0,0,0,3,2.69,10.08,10.08,0,0,0,3.87,1.08V209H372.85L353,184.58l-3.49.21v15.63c0,2.93.46,4.79,1.35,5.58s2.84,1.29,5.83,1.56V209h-22Zm27.11-27.51q6.3-2.58,6.31-9.72,0-6.92-5.66-9.41a20,20,0,0,0-8-1.35c-2.24,0-3.63.16-4.12.48s-.77,1.08-.77,2.27v19.52Q358.09,181.52,361.77,180.05Z" transform="translate(-26.9 -26.72)"/><path class="cls-1" d="M387.56,207.56c3.27-.34,5.38-1.08,6.3-2.22s1.41-3.82,1.41-8v-32.2c0-2.87-.46-4.73-1.35-5.59s-3-1.37-6.17-1.53v-1.47h15.64l18.21,39.5,17.78-39.5h15.75V158c-2.94.21-4.84.74-5.69,1.61s-1.28,2.69-1.28,5.51v35.25c0,2.89.43,4.74,1.28,5.57s2.75,1.33,5.69,1.6V209H432.94v-1.46c3.21-.27,5.21-.83,6-1.72s1.19-3,1.19-6.37V163.86L419.8,209h-1.08l-20-43.3v31.62c0,4.33.63,7.15,1.89,8.48.84.85,2.68,1.43,5.55,1.74V209H387.56Z" transform="translate(-26.9 -26.72)"/><path class="cls-1" d="M458.36,209v-1.46a6.53,6.53,0,0,0,4.59-2.3c1-1.3,2.77-4.89,5.24-10.73l16.53-38.9h1.57l19.76,45c1.32,3,2.37,4.81,3.15,5.53a7.78,7.78,0,0,0,4,1.44V209H493v-1.46a18,18,0,0,0,4.5-.75c.66-.3,1-1,1-2.18a10.21,10.21,0,0,0-.39-2A22.81,22.81,0,0,0,497,199.5l-3.19-7.62H473c-2.08,5.19-3.29,8.35-3.68,9.49a8.65,8.65,0,0,0-.61,2.71,2.78,2.78,0,0,0,1.62,2.78,12.83,12.83,0,0,0,3.79.7V209Zm34.15-20.36-9.09-21.85-9.12,21.85Z" transform="translate(-26.9 -26.72)"/><path class="cls-1" d="M515.35,207.56c2.91-.31,4.82-.83,5.68-1.56s1.3-2.58,1.3-5.57V165.14c0-2.81-.43-4.64-1.27-5.51s-2.76-1.4-5.71-1.61v-1.47h22.39V158c-2.91.16-4.88.63-5.87,1.43s-1.48,2.53-1.48,5.16v38.11a3.89,3.89,0,0,0,.44,2.06,2.46,2.46,0,0,0,1.95,1c.6.08,1.23.12,1.88.16s1.9,0,3.71,0c7.07,0,11.83-.58,14.31-1.73s4.89-4.14,7.21-8.91h2L558,209H515.35Z" transform="translate(-26.9 -26.72)"/><path class="cls-1" d="M581.24,207.56c3.18-.19,5.25-.67,6.18-1.48s1.4-2.71,1.4-5.65V165.14c0-2.92-.47-4.79-1.4-5.63s-3-1.33-6.18-1.49v-1.47h22.2q9.52,0,15.11,3.06t5.59,10.55c0,3.75-1.29,6.58-3.9,8.53a18.74,18.74,0,0,1-6.63,2.75,23.74,23.74,0,0,1,9.34,4.37,10.44,10.44,0,0,1,3.87,8.63q0,9.28-8.59,12.76A30.05,30.05,0,0,1,607.08,209H581.24Zm29.81-28.78q5-2.33,5-8.34c0-4.73-1.93-7.94-5.8-9.59q-3.22-1.35-9.77-1.35a6.39,6.39,0,0,0-3,.42c-.4.29-.59,1.06-.59,2.32v17.93l7.56-.12A16.55,16.55,0,0,0,611.05,178.78Zm2.56,25c2.74-1.58,4.1-4.62,4.1-9.07s-1.6-7.48-4.79-9.11a27.08,27.08,0,0,0-12.25-2.44h-2.29l-1.5,0V202.9c0,1.38.39,2.26,1.16,2.66s2.57.6,5.38.6A20.19,20.19,0,0,0,613.61,203.81Z" transform="translate(-26.9 -26.72)"/><path class="cls-1" d="M633.91,209v-1.46a6.53,6.53,0,0,0,4.59-2.3c1-1.3,2.76-4.89,5.24-10.73l16.53-38.9h1.57l19.78,45c1.3,3,2.36,4.81,3.14,5.53a7.74,7.74,0,0,0,4,1.44V209H668.56v-1.46a17.78,17.78,0,0,0,4.49-.75c.67-.3,1-1,1-2.18a10.21,10.21,0,0,0-.39-2,23,23,0,0,0-1.1-3.08l-3.17-7.62H648.5q-3.07,7.78-3.69,9.49a8.79,8.79,0,0,0-.59,2.71,2.8,2.8,0,0,0,1.62,2.78,12.74,12.74,0,0,0,3.78.7V209Zm34.16-20.36L659,166.81l-9.13,21.85Z" transform="translate(-26.9 -26.72)"/><path class="cls-1" d="M690.91,207.56q4.92-.51,6.32-2.22t1.38-8v-35l-1.08-1.26a8.53,8.53,0,0,0-3-2.54,11.78,11.78,0,0,0-3.66-.57v-1.47h13.54l30.61,38V168.14c0-4.33-.64-7.16-1.93-8.46-.86-.85-2.74-1.4-5.66-1.66v-1.47H746.1V158c-3,.3-5,1-6.05,2.21s-1.51,3.81-1.51,8V210H737.2l-35.09-43.48v30.87c0,4.33.63,7.15,1.89,8.48q1.25,1.27,5.55,1.74V209H690.91Z" transform="translate(-26.9 -26.72)"/><path class="cls-1" d="M785.72,156.9a39.23,39.23,0,0,0,5.11,1.28,3.63,3.63,0,0,0,2.42-.66,5.47,5.47,0,0,0,1.22-1.89h1.74l.62,16.68H795a30.27,30.27,0,0,0-5-8.59,16,16,0,0,0-12.2-5,18.37,18.37,0,0,0-13.41,5.79q-5.8,5.77-5.81,19.08,0,11,5.78,17.11a18.73,18.73,0,0,0,14.25,6.17,25.21,25.21,0,0,0,3.38-.28,21.47,21.47,0,0,0,3.66-.86,10.57,10.57,0,0,0,3.53-1.6,2.61,2.61,0,0,0,.7-2V189.54c0-3.06-.44-5-1.3-5.72s-2.75-1.22-5.67-1.4v-1.48H803.1v1.48c-2,.12-3.27.44-3.9,1-1.08.83-1.64,2.54-1.64,5.11V204.1c0,.94-2.28,2.17-6.83,3.72a40.53,40.53,0,0,1-13.15,2.33q-11.61,0-19.59-6.78-8.81-7.47-8.8-20.06a27.6,27.6,0,0,1,7-19c5.12-5.8,11.95-8.7,20.44-8.7A32.82,32.82,0,0,1,785.72,156.9Z" transform="translate(-26.9 -26.72)"/><path class="cls-2" d="M262.33,238.33a21.3,21.3,0,0,0,.24,3.45h-2.4L260,240h-.09a5.43,5.43,0,0,1-4.43,2.16A4.14,4.14,0,0,1,251,238c0-3.5,3.13-5.42,8.73-5.39v-.3c0-1.2-.33-3.35-3.29-3.35a7.12,7.12,0,0,0-3.78,1.08l-.6-1.75a9,9,0,0,1,4.76-1.29c4.44,0,5.51,3,5.51,5.94Zm-2.54-3.94c-2.88-.06-6.15.44-6.15,3.26a2.33,2.33,0,0,0,2.49,2.51,3.6,3.6,0,0,0,3.51-2.42,2.74,2.74,0,0,0,.14-.84Z" transform="translate(-26.9 -26.72)"/><path class="cls-2" d="M285.64,231.83c0-1.72,0-3.18-.1-4.52h2.29l.09,2.86H288a4.32,4.32,0,0,1,4-3.18,2.9,2.9,0,0,1,.74.08v2.48a4.63,4.63,0,0,0-.9-.09c-1.86,0-3.18,1.41-3.54,3.39a7.43,7.43,0,0,0-.12,1.23v7.72h-2.62Z" transform="translate(-26.9 -26.72)"/><path class="cls-2" d="M303.27,235c.05,3.57,2.33,5,5,5a9.36,9.36,0,0,0,4-.75l.44,1.89a11.68,11.68,0,0,1-4.81.94c-4.48,0-7.14-3-7.14-7.36s2.59-7.81,6.82-7.81c4.72,0,6,4.17,6,6.83,0,.55-.07,1-.08,1.22Zm7.73-1.88c0-1.68-.69-4.28-3.65-4.3-2.68,0-3.85,2.47-4.05,4.3Z" transform="translate(-26.9 -26.72)"/><path class="cls-2" d="M323.16,220.55h2.64l0,21.29h-2.62Z" transform="translate(-26.9 -26.72)"/><path class="cls-2" d="M346.77,238.36a21.6,21.6,0,0,0,.23,3.48h-2.39L344.4,240h-.08a5.47,5.47,0,0,1-4.44,2.15,4.13,4.13,0,0,1-4.43-4.18c0-3.5,3.12-5.41,8.71-5.37v-.3c0-1.21-.33-3.37-3.3-3.37a7.23,7.23,0,0,0-3.77,1.08l-.59-1.74a8.91,8.91,0,0,1,4.75-1.28c4.45,0,5.52,3,5.52,5.94Zm-2.55-3.91c-2.88-.08-6.14.43-6.14,3.26a2.33,2.33,0,0,0,2.48,2.51,3.61,3.61,0,0,0,3.51-2.43,2.75,2.75,0,0,0,.15-.83Z" transform="translate(-26.9 -26.72)"/><path class="cls-2" d="M360.56,223.87v3.48h3.78v2h-3.77v7.81c0,1.81.51,2.83,2,2.83a4.88,4.88,0,0,0,1.53-.19l.12,2a6.34,6.34,0,0,1-2.33.39A3.64,3.64,0,0,1,359,241c-.76-.79-1-2.06-1-3.78v-7.9h-2.25v-2H358v-2.68Z" transform="translate(-26.9 -26.72)"/><path class="cls-2" d="M376.6,223.28a1.65,1.65,0,0,1-3.29,0,1.62,1.62,0,0,1,1.66-1.63A1.57,1.57,0,0,1,376.6,223.28Zm-3,18.58V227.35h2.63v14.51Z" transform="translate(-26.9 -26.72)"/><path class="cls-2" d="M400.12,234.51c0,5.35-3.71,7.68-7.22,7.68-3.92,0-6.95-2.88-6.94-7.45,0-4.87,3.18-7.71,7.19-7.7C397.32,227.05,400.12,230.07,400.12,234.51Zm-11.5.14c0,3.18,1.82,5.57,4.4,5.57s4.41-2.37,4.41-5.63c0-2.46-1.23-5.59-4.34-5.59S388.62,231.88,388.62,234.65Z" transform="translate(-26.9 -26.72)"/><path class="cls-2" d="M409.81,231.29c0-1.48,0-2.72-.11-3.91H412l.15,2.39h.06a5.32,5.32,0,0,1,4.78-2.71c2,0,5.13,1.19,5.13,6.16v8.66H419.5l0-8.35c0-2.35-.87-4.29-3.37-4.29a3.73,3.73,0,0,0-3.52,2.69,3.53,3.53,0,0,0-.19,1.23v8.7H409.8Z" transform="translate(-26.9 -26.72)"/><path class="cls-2" d="M432.42,239.19a6.76,6.76,0,0,0,3.48,1.06c1.93,0,2.82-1,2.82-2.17s-.75-1.94-2.7-2.67c-2.6-.92-3.83-2.35-3.83-4.1,0-2.32,1.89-4.25,5-4.25a7.17,7.17,0,0,1,3.56.91l-.64,1.92a5.71,5.71,0,0,0-3-.86c-1.54,0-2.43.91-2.43,2s.87,1.73,2.77,2.45c2.51,1,3.8,2.21,3.8,4.38,0,2.53-2,4.37-5.43,4.37a8.1,8.1,0,0,1-4.08-1Z" transform="translate(-26.9 -26.72)"/><path class="cls-2" d="M451,220.64h2.64v9h.06a5.11,5.11,0,0,1,1.87-1.85,5.58,5.58,0,0,1,2.71-.75c1.94,0,5.07,1.22,5,6.2v8.63H460.7v-8.32c0-2.35-.86-4.31-3.35-4.32a3.75,3.75,0,0,0-3.53,2.64,3.2,3.2,0,0,0-.18,1.26v8.74H451Z" transform="translate(-26.9 -26.72)"/><path class="cls-2" d="M476.93,223.34a1.63,1.63,0,0,1-3.26,0,1.61,1.61,0,0,1,1.64-1.66A1.58,1.58,0,0,1,476.93,223.34ZM474,241.92v-14.5h2.64v14.5Z" transform="translate(-26.9 -26.72)"/><path class="cls-2" d="M487.35,232.16c0-1.86-.05-3.37-.11-4.74h2.35l.13,2.48h.07a5.68,5.68,0,0,1,5.14-2.81c3.5,0,6.15,3,6.15,7.38,0,5.22-3.19,7.78-6.6,7.78A5.07,5.07,0,0,1,490,240H490v7.88h-2.6ZM490,236a5.86,5.86,0,0,0,.12,1.09,4.07,4.07,0,0,0,4,3.09c2.77,0,4.4-2.28,4.4-5.61,0-2.9-1.52-5.38-4.31-5.39a4.24,4.24,0,0,0-4,3.27,5.53,5.53,0,0,0-.17,1.08Z" transform="translate(-26.9 -26.72)"/><path class="cls-2" d="M523.47,220.67h2.6v9.12h.06a5.37,5.37,0,0,1,5-2.68c3.58,0,6.13,3,6.1,7.42,0,5.19-3.28,7.76-6.51,7.76a5.14,5.14,0,0,1-4.85-2.75h-.1l-.11,2.4h-2.28c.06-1,.11-2.45.11-3.75Zm2.6,15.47a6.92,6.92,0,0,0,.1,1,4.11,4.11,0,0,0,4,3.1c2.75,0,4.4-2.24,4.4-5.58,0-2.91-1.48-5.41-4.3-5.41a4.21,4.21,0,0,0-4,3.24,6.31,6.31,0,0,0-.14,1.09Z" transform="translate(-26.9 -26.72)"/><path class="cls-2" d="M548.33,235.19c0,3.56,2.32,5,5,5a10,10,0,0,0,4-.73l.45,1.89a12.15,12.15,0,0,1-4.83.91c-4.46,0-7.13-3-7.13-7.33s2.59-7.83,6.8-7.83c4.75,0,6,4.16,6,6.83a7.9,7.9,0,0,1-.1,1.23Zm7.73-1.89c0-1.67-.69-4.28-3.65-4.28-2.67,0-3.85,2.46-4.06,4.28Z" transform="translate(-26.9 -26.72)"/><path class="cls-2" d="M569.18,227.48l3.18,8.56c.32,1,.68,2.1.93,3h.05c.26-.86.58-2,.93-3l2.88-8.49h2.78L576,237.81c-1.9,5-3.19,7.5-5,9.09a7.78,7.78,0,0,1-3.25,1.72l-.65-2.25a6.82,6.82,0,0,0,2.3-1.28,8.15,8.15,0,0,0,2.22-2.93,1.84,1.84,0,0,0,.21-.64,2.72,2.72,0,0,0-.18-.68l-5.36-13.38Z" transform="translate(-26.9 -26.72)"/><path class="cls-2" d="M601.8,234.62c0,5.36-3.71,7.69-7.23,7.69-3.92,0-6.93-2.88-6.93-7.46,0-4.84,3.19-7.7,7.2-7.7S601.8,230.19,601.8,234.62Zm-11.5.15c0,3.18,1.82,5.57,4.4,5.57s4.41-2.37,4.41-5.63c0-2.45-1.22-5.57-4.34-5.57S590.3,232,590.3,234.77Z" transform="translate(-26.9 -26.72)"/><path class="cls-2" d="M611.49,231.43c0-1.51,0-2.74-.12-3.93h2.34l.15,2.4h0a5.33,5.33,0,0,1,4.8-2.73c2,0,5.12,1.2,5.12,6.18V242H621.2v-8.35c0-2.33-.87-4.28-3.36-4.28a3.9,3.9,0,0,0-3.73,3.91V242h-2.63Z" transform="translate(-26.9 -26.72)"/><path class="cls-2" d="M647,220.74v17.54c0,1.27,0,2.75.1,3.72h-2.37l-.1-2.51h-.06a5.37,5.37,0,0,1-5,2.85c-3.49,0-6.2-3-6.18-7.37,0-4.83,3-7.8,6.5-7.79a4.85,4.85,0,0,1,4.36,2.21h.06v-8.65Zm-2.65,12.67a4.7,4.7,0,0,0-.11-1.11,3.9,3.9,0,0,0-3.8-3.06c-2.74,0-4.36,2.4-4.36,5.61,0,2.94,1.44,5.36,4.29,5.37a4,4,0,0,0,3.87-3.14,5.28,5.28,0,0,0,.11-1.15Z" transform="translate(-26.9 -26.72)"/><path class="cls-2" d="M670.43,220.75l2.62,0,0,9.1h.06a5.4,5.4,0,0,1,4.94-2.66c3.6,0,6.16,3,6.11,7.4,0,5.19-3.27,7.76-6.51,7.76a5.21,5.21,0,0,1-4.85-2.72h-.08l-.13,2.38h-2.28c.07-1,.14-2.46.14-3.75Zm2.6,15.47a4.74,4.74,0,0,0,.12.95,4.08,4.08,0,0,0,4,3.1c2.76,0,4.41-2.23,4.41-5.57,0-2.9-1.5-5.4-4.32-5.4a4.22,4.22,0,0,0-4,3.23,6.18,6.18,0,0,0-.14,1.09Z" transform="translate(-26.9 -26.72)"/><path class="cls-2" d="M693.81,232.07c0-1.71,0-3.17-.1-4.51H696l.08,2.83h.12a4.33,4.33,0,0,1,4-3.16,2.91,2.91,0,0,1,.76.08v2.5a3.54,3.54,0,0,0-.9-.1c-1.86,0-3.18,1.4-3.54,3.37a7.8,7.8,0,0,0-.12,1.25V242h-2.61Z" transform="translate(-26.9 -26.72)"/><path class="cls-2" d="M723.1,234.69c0,5.37-3.73,7.7-7.23,7.7-3.93,0-6.94-2.88-6.94-7.47,0-4.85,3.17-7.69,7.19-7.68S723.1,230.25,723.1,234.69Zm-11.51.14c0,3.18,1.83,5.58,4.4,5.58s4.41-2.37,4.41-5.63c0-2.46-1.23-5.58-4.33-5.58S711.6,232.08,711.59,234.83Z" transform="translate(-26.9 -26.72)"/><path class="cls-2" d="M735.38,234.23h.07c.34-.53.86-1.15,1.28-1.67l4.26-5,3.17,0-5.61,6,6.38,8.53h-3.2l-5-7-1.35,1.5v5.46h-2.62l0-21.29h2.59Z" transform="translate(-26.9 -26.72)"/><path class="cls-2" d="M756.11,223.51a1.55,1.55,0,0,1-1.66,1.62,1.57,1.57,0,0,1-1.59-1.62,1.61,1.61,0,0,1,1.64-1.66A1.56,1.56,0,0,1,756.11,223.51Zm-2.94,18.57v-14.5h2.63v14.5Z" transform="translate(-26.9 -26.72)"/><path class="cls-2" d="M766.55,231.51c0-1.5,0-2.72-.12-3.93h2.34l.13,2.4H769a5.3,5.3,0,0,1,4.79-2.73c2,0,5.13,1.2,5.12,6.18v8.66l-2.64,0,0-8.34c0-2.35-.87-4.3-3.35-4.3a3.76,3.76,0,0,0-3.55,2.69,3.86,3.86,0,0,0-.17,1.25l0,8.7h-2.63Z" transform="translate(-26.9 -26.72)"/><path class="cls-2" d="M801.89,240c0,3.32-.66,5.36-2.06,6.62a7.76,7.76,0,0,1-5.28,1.72,9.31,9.31,0,0,1-4.82-1.2l.66-2a8.08,8.08,0,0,0,4.25,1.14c2.69,0,4.66-1.41,4.68-5v-1.62h-.07a5.12,5.12,0,0,1-4.61,2.41c-3.59,0-6.18-3.05-6.18-7.06,0-4.92,3.24-7.69,6.55-7.69a4.77,4.77,0,0,1,4.52,2.53h.06l.12-2.21,2.3,0c0,1-.12,2.21-.12,4Zm-2.6-6.69a4.07,4.07,0,0,0-.15-1.2,3.79,3.79,0,0,0-3.68-2.79c-2.52,0-4.31,2.14-4.32,5.48,0,2.85,1.43,5.22,4.28,5.22a3.84,3.84,0,0,0,3.66-2.7,4.51,4.51,0,0,0,.21-1.41Z" transform="translate(-26.9 -26.72)"/><path class="cls-1" d="M190.62,204.8s-57,75.48-85.67,47.39C76.5,224.33,26.9,179.45,26.9,179.45s9.85-9.85,17.09-4,46.63,40.47,60.52,50.91,42.4-57.24,65.51-38.27C181.76,197.71,190.62,204.8,190.62,204.8Z" transform="translate(-26.9 -26.72)"/><path class="cls-3" d="M75,193.94s57-75.49,85.64-47.4c28.45,27.85,78,72.75,78,72.75s-9.83,9.85-17.1,4S175,182.84,161.09,172.41s-42.4,57.22-65.51,38.25C83.84,201,75,193.94,75,193.94Z" transform="translate(-26.9 -26.72)"/><path class="cls-4" d="M251.14,82.11V37.61a16.5,16.5,0,0,1,7.35,2.79Z" transform="translate(-26.9 -26.72)"/><path class="cls-4" d="M255.92,72.14l7.27-41.09s3,.51,6.5,3.78Z" transform="translate(-26.9 -26.72)"/><path class="cls-4" d="M277.29,112.28a13.42,13.42,0,1,1,13.16-16h13a26.33,26.33,0,0,0-26.2-23.69,25.1,25.1,0,0,0-3.37.22l0,0,9.81-19.61s8.11-16.34-7.88-26.4L252.73,89.39A26,26,0,0,0,251,98.86a26.33,26.33,0,0,0,52.52,2.62h-13A13.42,13.42,0,0,1,277.29,112.28Z" transform="translate(-26.9 -26.72)"/><path class="cls-4" d="M320.7,102.2a14.22,14.22,0,0,0,3.3,9,10,10,0,0,0,7.86,3.34,11.07,11.07,0,0,0,5.74-1.47,6.64,6.64,0,0,0,3.19-4.1h13.6a21.9,21.9,0,0,1-8.12,11.86,22.94,22.94,0,0,1-13.8,4.17q-25,0-25-27.2a31.7,31.7,0,0,1,1.62-10.45,22.51,22.51,0,0,1,4.72-8,20.46,20.46,0,0,1,7.56-5.13,27.66,27.66,0,0,1,10.25-1.77q11.56,0,17.5,7.41t5.94,22.33Zm20.8-8.33a14,14,0,0,0-1-4.82,10.25,10.25,0,0,0-2.29-3.45,9,9,0,0,0-3.24-2,11,11,0,0,0-3.76-.66,9.41,9.41,0,0,0-6.85,2.89,12.42,12.42,0,0,0-3.3,8.07Z" transform="translate(-26.9 -26.72)"/><path class="cls-4" d="M390.92,117.11a10.44,10.44,0,0,1-5.12,5.23,18.32,18.32,0,0,1-8.38,1.87,20.58,20.58,0,0,1-7.3-1.26,16.43,16.43,0,0,1-5.78-3.66,16.8,16.8,0,0,1-3.81-5.68,19.34,19.34,0,0,1-1.37-7.46V73.78h13.19v30.45q0,9.33,8.42,9.33a10.26,10.26,0,0,0,7.36-2.64,8.81,8.81,0,0,0,2.79-6.69V73.78h13.19V125a23.93,23.93,0,0,1-1.77,9.44,20.24,20.24,0,0,1-4.87,7,21.65,21.65,0,0,1-7.31,4.36,26.1,26.1,0,0,1-9,1.52q-11.07,0-16.54-5.58t-5.48-15.32h12.28a9.38,9.38,0,0,0,2.58,7q2.6,2.53,7.77,2.54a8,8,0,0,0,3.45-.77,9,9,0,0,0,2.89-2.13,10.25,10.25,0,0,0,2-3.4,12.54,12.54,0,0,0,.76-4.46Z" transform="translate(-26.9 -26.72)"/><path class="cls-4" d="M434,125a28.89,28.89,0,0,1-10.86-1.93A22.31,22.31,0,0,1,410,109.4a31.74,31.74,0,0,1-1.73-10.66A31.24,31.24,0,0,1,410.05,88a22.43,22.43,0,0,1,13.19-13.65A28.84,28.84,0,0,1,434,72.46a28.1,28.1,0,0,1,10.55,1.88,22.21,22.21,0,0,1,13,13.55,31.58,31.58,0,0,1,1.78,10.85,31.18,31.18,0,0,1-1.78,10.81,23.47,23.47,0,0,1-5.07,8.27,22.33,22.33,0,0,1-8,5.33A28.2,28.2,0,0,1,434,125ZM434,114Q446,114,446,98.74T434,83.62q-12.07,0-12.08,15.12T434,114Z" transform="translate(-26.9 -26.72)"/><path class="cls-4" d="M495.55,123.71V93.46c0-3.84-.65-6.46-1.93-7.81s-3.49-2-6.6-2q-10.25,0-10.25,11.47v28.62H463.58V73.78h12.59v7.3a16,16,0,0,1,6.18-6.44,20.14,20.14,0,0,1,9.95-2.18,19.55,19.55,0,0,1,6.59,1.07,13.74,13.74,0,0,1,5.23,3.19,15.3,15.3,0,0,1,3.45,5.22,18.71,18.71,0,0,1,1.27,7.16v34.61Z" transform="translate(-26.9 -26.72)"/><path class="cls-4" d="M548.72,123.71l-.1-6.09Q544,125,534.72,125A20.53,20.53,0,0,1,526,123.2a19.15,19.15,0,0,1-6.8-5.27,25.51,25.51,0,0,1-4.46-8.43,36,36,0,0,1-1.63-11.26,37.42,37.42,0,0,1,1.37-10.41,24.55,24.55,0,0,1,4-8.17,18.24,18.24,0,0,1,6.44-5.32,19.4,19.4,0,0,1,8.68-1.88q9.23,0,14.82,7.81V55.51h13v68.2Zm-11-9.44a9.85,9.85,0,0,0,8-4c2.13-2.64,3.19-6.08,3.19-10.35q0-16.23-11.06-16.24-11.37,0-11.36,15.43,0,6.7,3.14,10.91A9.73,9.73,0,0,0,537.76,114.27Z" transform="translate(-26.9 -26.72)"/><path class="cls-4" d="M555.17,52.34a6.24,6.24,0,1,1,6.24-6.24A6.24,6.24,0,0,1,555.17,52.34Zm0-11.8a5.57,5.57,0,1,0,5.58,5.56A5.58,5.58,0,0,0,555.17,40.54Z" transform="translate(-26.9 -26.72)"/><path class="cls-4" d="M553.37,42.68a8,8,0,0,1,1.56-.14,2.62,2.62,0,0,1,1.83.52,1.56,1.56,0,0,1,.49,1.19,1.65,1.65,0,0,1-1.18,1.6v0a1.63,1.63,0,0,1,.92,1.27,12.25,12.25,0,0,0,.48,1.73h-.84a6.91,6.91,0,0,1-.41-1.51c-.19-.87-.54-1.19-1.27-1.22h-.77v2.73h-.81Zm.81,2.85H555c.87,0,1.42-.47,1.42-1.19s-.59-1.17-1.45-1.17a3.17,3.17,0,0,0-.8.08Z" transform="translate(-26.9 -26.72)"/><path class="cls-4" d="M581.27,107h4.59a5.24,5.24,0,0,1,3.83,1.28,6,6,0,0,1,0,7.47,5.28,5.28,0,0,1-3.83,1.26h-2.55v6.73h-2Zm2,1.86v6.29h2.55a2.93,2.93,0,0,0,2.21-.81,3.9,3.9,0,0,0,0-4.65,2.9,2.9,0,0,0-2.21-.83Z" transform="translate(-26.9 -26.72)"/><path class="cls-4" d="M608.68,110.84a4.58,4.58,0,0,1,3.8,1.76,9.1,9.1,0,0,1,0,9.67,5,5,0,0,1-7.61,0,9.22,9.22,0,0,1,0-9.67A4.57,4.57,0,0,1,608.68,110.84Zm0,1.76a2.69,2.69,0,0,0-2.36,1.29,6.26,6.26,0,0,0-.87,3.54,6.34,6.34,0,0,0,.86,3.56,2.72,2.72,0,0,0,2.37,1.29A2.68,2.68,0,0,0,611,121a7.72,7.72,0,0,0,0-7.08A2.68,2.68,0,0,0,608.68,112.6Z" transform="translate(-26.9 -26.72)"/><path class="cls-4" d="M627.33,111.14h1.86l2.32,9.8,2.31-9.8H636l2.32,9.8,2.31-9.8h1.86l-3,12.56h-2.19l-2.43-10.29-2.45,10.29h-2.18Z" transform="translate(-26.9 -26.72)"/><path class="cls-4" d="M666.45,116.91v1h-8.54a5,5,0,0,0,1.16,3.24,3.71,3.71,0,0,0,2.88,1.12A7.63,7.63,0,0,0,664,122a9.11,9.11,0,0,0,2-.88v2a9.81,9.81,0,0,1-2,.72,9.52,9.52,0,0,1-2.12.25,5.5,5.5,0,0,1-4.29-1.75,6.81,6.81,0,0,1-1.58-4.73,7.4,7.4,0,0,1,1.5-4.89,5,5,0,0,1,4-1.82,4.4,4.4,0,0,1,3.6,1.63A6.81,6.81,0,0,1,666.45,116.91Zm-1.85-.61a4.27,4.27,0,0,0-.86-2.7,2.71,2.71,0,0,0-2.2-1,3.28,3.28,0,0,0-2.49,1,4.31,4.31,0,0,0-1.07,2.74Z" transform="translate(-26.9 -26.72)"/><path class="cls-4" d="M687.53,113.08a2.17,2.17,0,0,0-.68-.3,3,3,0,0,0-.81-.1,2.81,2.81,0,0,0-2.42,1.14,5.44,5.44,0,0,0-.85,3.27v6.61H680.9V111.14h1.87v2a4,4,0,0,1,1.53-1.7,4.42,4.42,0,0,1,2.27-.56,2.22,2.22,0,0,1,.43,0,3.67,3.67,0,0,1,.52.08Z" transform="translate(-26.9 -26.72)"/><path class="cls-4" d="M710.1,116.91v1h-8.54a5,5,0,0,0,1.16,3.24,3.73,3.73,0,0,0,2.88,1.12,7.57,7.57,0,0,0,2.08-.29,8.9,8.9,0,0,0,2-.88v2a9.81,9.81,0,0,1-2,.72,9.38,9.38,0,0,1-2.12.25,5.5,5.5,0,0,1-4.29-1.75,6.81,6.81,0,0,1-1.57-4.73,7.4,7.4,0,0,1,1.49-4.89,5,5,0,0,1,4-1.82,4.44,4.44,0,0,1,3.61,1.63A6.87,6.87,0,0,1,710.1,116.91Zm-1.86-.61a4.15,4.15,0,0,0-.85-2.7,2.69,2.69,0,0,0-2.2-1,3.31,3.31,0,0,0-2.49,1,4.25,4.25,0,0,0-1.07,2.74Z" transform="translate(-26.9 -26.72)"/><path class="cls-4" d="M732.07,113.06v-6.8h1.86V123.7h-1.86v-1.88a4.1,4.1,0,0,1-1.48,1.66,4,4,0,0,1-2.15.55,3.93,3.93,0,0,1-3.33-1.82,9.55,9.55,0,0,1,0-9.55,3.93,3.93,0,0,1,3.33-1.82,4.06,4.06,0,0,1,2.15.55A4.13,4.13,0,0,1,732.07,113.06Zm-6.33,4.37a6.54,6.54,0,0,0,.84,3.58,2.73,2.73,0,0,0,4.64,0,7.92,7.92,0,0,0,0-7.14,2.72,2.72,0,0,0-4.64,0A6.49,6.49,0,0,0,725.74,117.43Z" transform="translate(-26.9 -26.72)"/><path class="cls-4" d="M769.06,113.06a4.06,4.06,0,0,1,1.48-1.67,4,4,0,0,1,2.13-.55,4,4,0,0,1,3.35,1.82,9.55,9.55,0,0,1,0,9.55,4,4,0,0,1-3.35,1.82,3.9,3.9,0,0,1-2.13-.55,4,4,0,0,1-1.48-1.66v1.88h-1.87V106.26h1.87Zm6.31,4.37a6.49,6.49,0,0,0-.84-3.56,2.71,2.71,0,0,0-4.63,0,8,8,0,0,0,0,7.14,2.72,2.72,0,0,0,4.63,0A6.54,6.54,0,0,0,775.37,117.43Z" transform="translate(-26.9 -26.72)"/><path class="cls-4" d="M796.56,124.87a7.68,7.68,0,0,1-1.53,2.92,2.84,2.84,0,0,1-2,.69h-1.48v-1.73h1.08a1.69,1.69,0,0,0,1.19-.4,5.12,5.12,0,0,0,.94-1.9l.34-1-4.57-12.36h2L796,121l3.53-9.83h2Z" transform="translate(-26.9 -26.72)"/></svg>