<?xml version="1.0" encoding="UTF-8"?>
<svg id="Layer_2" data-name="Layer 2" xmlns="http://www.w3.org/2000/svg" xmlns:xlink="http://www.w3.org/1999/xlink" viewBox="0 0 1467.71 486.49">
  <defs>
    <style>
      .cls-1 {
        clip-path: url(#clippath);
      }

      .cls-2 {
        fill: #f7f7f7;
      }

      .cls-3, .cls-4, .cls-5 {
        fill: #eb7b32;
      }

      .cls-6, .cls-7 {
        fill: #1e3768;
      }

      .cls-4 {
        fill-rule: evenodd;
      }

      .cls-5 {
        font-size: 60px;
      }

      .cls-5, .cls-7 {
        font-family: AlienWorld, 'Alien World';
      }

      .cls-7 {
        font-size: 187.3px;
      }
    </style>
    <clipPath id="clippath">
      <text class="cls-7" transform="translate(460.92 351.19)"><tspan x="0" y="0" xml:space="preserve">EL    CITY</tspan></text>
    </clipPath>
  </defs>
  <g id="Layer_1-2" data-name="Layer 1">
    <path class="cls-3" d="m321.32,486.49c78.46,0,144.73-54.38,166.06-128.96-23.57,57.95-78.63,98.6-142.8,98.6-85.63,0-155.04-72.37-155.04-161.65,0-89.28,69.41-161.65,155.04-161.65,15.7,0,30.84,2.45,45.11,6.97-20.98-9.4-44.09-14.62-68.38-14.62-95.69,0-173.27,80.88-173.27,180.66,0,99.77,77.58,180.66,173.27,180.66Z"/>
    <g class="cls-1">
      <rect class="cls-6" x="26.43" y="133.11" width="1321.58" height="286.32"/>
    </g>
    <path class="cls-4" d="m76.23,141.29l156.36-7.96c-5.85,4.86-11.51,9.95-16.98,15.25l-139.38-7.29h0Zm99.4,255.8l1156.59-6.24c30.6,4.64,24.88.91,8.56,13.38l-1165.15-7.14h0Zm-154.22-51.19l115.2-5.86c.46,4.06,1.06,8.06,1.81,11.98l-117.01-6.12h0Zm-6.69-51.15l123.52-5.58c-.63,3.77-1.15,7.52-1.56,11.22l-121.96-5.65h0Zm51.1,173.79l115.2-5.86c.46,4.06,1.06,8.06,1.81,11.98l-117.01-6.12h0Zm-36.29-37.41l123.52-5.58c-.63,3.77-1.15,7.52-1.56,11.22l-121.96-5.65h0Zm46.51-187.53l76.98-4.71c-1.3,3.09-2.53,6.21-3.7,9.35l-73.27-4.64h0ZM0,192.44l183.26-6.72c-3.16,4.33-6.19,8.74-9.09,13.23L0,192.44h0Z"/>
    <path class="cls-3" d="m320.28,150.38c-25.28,5.25-48.83,17.11-68.13,34.3-9.65,8.6-18.19,18.47-25.37,29.35-7.15,10.84-12.86,22.52-16.97,34.71-8.27,24.56-9.93,50.95-4.8,76.33,4.35,21.52,13.61,42.01,26.78,59.24l.83,1.09,40.83-26.53-39.94,22.34c-4.87-6.51-9.18-13.49-12.87-20.8l23.76-12.09-1.42-2.89-23.76,12.09c-4.88-10.23-8.55-21.08-10.88-32.22l11.5-2.45-.62-3.17-11.51,2.45c-2.09-11.26-2.81-22.71-2.2-34.08l12.43.66.22-3.23-12.43-.66c.87-11.4,3.09-22.7,6.65-33.64l11.12,3.66,1.04-3.08-11.12-3.66c3.78-10.8,8.85-21.16,15.09-30.87l22.06,14.56,1.79-2.72-22.06-14.56c6.46-9.56,13.99-18.31,22.42-26.04l8.16,9.28,2.42-2.17-8.17-9.28c8.66-7.58,18.17-14.08,28.31-19.38l5.17,10.52,2.89-1.47-5.17-10.51c10.22-5.05,21.04-8.9,32.22-11.42l2.33,11.84,3.16-.67-2.33-11.83c11.17-2.25,22.6-3.15,33.94-2.69l-1.78,26.75,5-26.59c8.02.5-17.28-4.91-38.61-.48Z"/>
    <polygon class="cls-6" points="528.49 0 354.96 326.89 270.54 247.5 344.83 352.02 371.3 352.02 528.49 0"/>
    <g>
      <rect class="cls-3" x="1328.11" y="390.65" width="9.55" height="14.3"/>
      <rect class="cls-3" x="1335.3" y="387.65" width="7.28" height="20.29" rx="3.35" ry="3.35"/>
      <rect class="cls-3" x="1324.47" y="387.65" width="7.28" height="20.29" rx="3.35" ry="3.35"/>
      <path class="cls-3" d="m1434.78,419.75c25.18-19.57,31.44-22.18,32.92-22.45-1.48-.28-7.74-2.89-32.92-22.45-31.24-24.27-44.89-22.44-44.89-22.44-32.45-.91-47.32,36.09-47.32,36.09v8.8s0,8.8,0,8.8c0,0,14.86,37,47.32,36.09,0,0,13.65,1.84,44.89-22.44Z"/>
      <path class="cls-3" d="m1347.74,389.58c2.38-5.22,16.17-32.74,42.01-32.01l.59.02.18-.04c1.26-.01,14.13.42,41.1,21.38,12.15,9.44,20.03,15.04,25.2,18.38-5.17,3.34-13.04,8.94-25.2,18.38-28.26,21.96-40.92,21.41-41.04,21.4l-.41-.06h-.42c-25.95.74-39.64-26.76-42.01-32v-15.44Z"/>
      <path class="cls-3" d="m1347.74,405.02c2.37,5.24,16.06,32.73,42.01,32.01h.42s.41.04.41.04c.11.02,12.77.56,41.04-21.4,12.15-9.44,20.03-15.04,25.2-18.38h-109.08v7.73Z"/>
    </g>
    <g>
      <g>
        <path class="cls-6" d="m956.61,304.92c-60.18-14.64-120.56,11.05-180.95,16.64-9.87.91-19.75,1.25-29.62.82,3.29,4.13,7.12,7.81,11.38,10.94,4.44,3.25,9.35,5.89,14.62,7.78,6.04,2.17,12.55,3.36,19.35,3.36,12.59,0,24.24-3.99,33.75-10.78,10.75,6.81,23.52,10.78,37.24,10.78,16.67,0,31.94-5.86,43.91-15.61,6.96,3.61,15.05,5.67,23.68,5.67,18.98,0,35.24-10.07,42.91-24.54-5.42-2.03-10.85-3.74-16.27-5.06Z"/>
        <path class="cls-6" d="m739.43,254.05c9.86-18.8,29.66-31.96,51.63-31.96,23.2,0,44.98,14.58,53.8,36.02-4.85-11.79-11.64-22.81-21.89-30.63-1.13-.86-6.46-4.52-10.91-6.76,11.64-9.03,23.37-17.41,38.12-20.24,13.96-2.68,28.31-.86,41.2,5.18,15.63,7.31,27.35,20.04,33.95,34.68-47.21-2.39-137.17,60.97-187.58,62.02-2.04.04-4.63-17.12-4.77-19.12-.72-10.05,1.78-20.29,6.44-29.18Z"/>
        <path class="cls-6" d="m925.33,240.34c-36.66-3.3-87.29,24.35-126.75,38.21-13.95,4.91-31.54,1.41-60.82,23.81,0,10.7,6.49,17.52,8.28,20.02,13.19,18.32,45,2.83,74.71.09,56.03-5.19,52.69-16.25,109.3-16.12,16.15.04,27.2-.49,42.83,3.64,7.35-7.62,8.6-64.59-47.55-69.64Z"/>
        <g>
          <path class="cls-6" d="m710.26,325.51c56.92-24.4,120.72-9.07,181.21-13.56,9.88-.74,19.68-2.04,29.35-4.1-2.56,4.62-5.73,8.89-9.42,12.67-3.84,3.95-8.25,7.36-13.13,10.1-5.6,3.14-11.82,5.4-18.53,6.52-12.42,2.09-24.57.08-35.07-5.04-9.48,8.49-21.41,14.53-34.94,16.8-16.44,2.76-32.46-.49-45.89-8.13-6.27,4.71-13.91,8.09-22.41,9.52-18.72,3.14-36.42-4.09-46.38-17.1,5.01-2.9,10.08-5.48,15.21-7.68Z"/>
          <path class="cls-6" d="m916.01,239.37c-12.83-16.91-34.54-26.61-56.21-22.97-22.88,3.84-41.94,21.82-47.09,44.43,2.83-12.43,7.7-24.42,16.51-33.84.97-1.03,5.62-5.52,9.64-8.47-12.97-6.98-25.93-13.3-40.94-13.65-14.22-.33-28.06,3.84-39.78,11.93-14.2,9.8-23.65,24.3-27.74,39.83,46.17-10.17,145.37,37.41,195.26,30.1,2.02-.3,1.73-17.65,1.53-19.65-.96-10.03-5.11-19.72-11.18-27.71Z"/>
          <path class="cls-6" d="m730.41,256.64c35.61-9.32,90.11,9.56,131.33,16.69,14.57,2.53,31.34-3.84,63.93,13.41,1.77,10.55-3.49,18.35-4.86,21.11-9.97,20.25-43.91,10.24-73.67,12.46-56.12,4.16-54.66-7.3-110.46,2.2-15.92,2.72-26.9,4.02-41.63,10.68-8.51-6.3-19.18-62.27,35.36-76.55Z"/>
        </g>
      </g>
      <path class="cls-2" d="m819.27,338.01c16.29-2.75,27.36-18.17,24.59-34.58-2.75-16.29-18.26-27.23-34.55-24.48-16.28,2.75-27.35,18.17-24.6,34.46,2.77,16.41,18.28,27.35,34.56,24.61h0Zm76.95-69.53c13.12-.36,23.5-11.11,23.25-24.25-.36-13.12-11.22-23.49-24.24-23.27-13.12.36-23.48,11.23-23.25,24.25.24,13.14,11.11,23.51,24.24,23.26h0Zm-118.1,83.24c-1.82-1.29-2.12-3.83-.95-5.63,6.21-9.18-1.9-22.23-12.84-20.63-2.29.26-4.37-1.11-4.76-3.39l-.73-4.31-.73-4.31c-.36-2.16,1.13-4.26,3.4-4.64,10.98-2.1,14.1-17.16,5.22-23.8-1.7-1.32-2.24-3.81-.95-5.63l2.59-3.64,2.61-3.52c1.29-1.82,3.69-2.22,5.63-.95,9.18,6.22,22.24-1.78,20.74-12.86-.36-2.16,1.13-4.26,3.28-4.62l4.31-.73,4.31-.73c2.16-.36,4.25,1.13,4.62,3.29,2.1,10.98,17.18,14.23,23.81,5.35,1.29-1.82,3.81-2.24,5.63-.95l3.62,2.47,3.64,2.59c1.7,1.31,2.13,3.83.95,5.63-6.21,9.18,1.68,22.39,12.74,20.77,2.27-.38,4.25,1.13,4.61,3.29l.73,4.31.73,4.31c.38,2.28-1.01,4.24-3.26,4.74-10.86,2.08-14.24,17.06-5.37,23.7,1.7,1.31,2.12,3.83.95,5.63l-2.61,3.52-2.59,3.64c-1.17,1.8-3.68,2.22-5.63.95-9.05-6.24-22.19,2.02-20.6,12.96.36,2.16-1.13,4.26-3.28,4.62l-4.31.73-4.31.73c-2.16.36-4.25-1.13-4.62-3.29-2.22-10.96-17.08-14.37-23.83-5.47-1.3,1.82-3.81,2.25-5.63.95l-3.52-2.61-3.62-2.47Zm83.74-76.71c-1.32-1.26-1.41-3.21-.15-4.53,6.04-6.56,1.02-18.04-7.96-18-1.74-.08-3.2-1.43-3.26-3.27l-.08-3.44-.11-3.55c-.06-1.84,1.41-3.32,3.25-3.38,9.04-.42,13.23-12.09,6.99-18.43-1.32-1.26-1.4-3.21-.15-4.53l2.51-2.64,2.41-2.5c1.25-1.32,3.35-1.3,4.65-.17,6.56,6.04,18.07,1.27,18.04-7.72-.07-1.84,1.41-3.32,3.13-3.36l3.55-.11,3.55-.11c1.86.06,3.32,1.41,3.38,3.25.41,9.05,11.98,13.38,18.3,7.02,1.26-1.32,3.35-1.3,4.67-.05l2.5,2.41,2.62,2.39c1.32,1.26,1.3,3.35.05,4.67-5.92,6.54-1.14,18.06,7.84,18.02,1.86.06,3.32,1.41,3.38,3.25l.11,3.55-.03,3.45c.06,1.84-1.29,3.3-3.13,3.36-8.92.4-13.37,11.99-7.13,18.33,1.32,1.26,1.43,3.33.17,4.65l-2.53,2.52-2.41,2.5c-1.25,1.32-3.21,1.4-4.65.17-6.56-6.04-17.91-1.04-17.87,7.94-.08,1.74-1.43,3.2-3.27,3.26l-3.55.11-3.55.11c-1.72.04-3.2-1.43-3.26-3.27-.4-8.93-11.98-13.38-18.32-7.14-1.26,1.32-3.34,1.42-4.65.17l-2.5-2.41-2.52-2.53Z"/>
    </g>
    <path class="cls-4" d="m25.52,397.41l115.2-5.86c.46,4.06,1.06,8.06,1.81,11.98l-117.01-6.12h0Z"/>
    <text class="cls-5" transform="translate(512.98 468.66)"><tspan x="0" y="0" xml:space="preserve">TradeTech  Solutions</tspan></text>
  </g>
</svg>